HIERARCHY
ROOT reference
{
  OFFSET 0 0 0
  CHANNELS 6 Xposition Yposition Zposition Zrotation Xrotation Yrotation
  JOINT Hips
  {
    OFFSET 368.823 89.7904 194.012
    CHANNELS 3 Zrotation Xrotation Yrotation
    JOINT RightUpLeg
    {
      OFFSET -9.24587 -1.53924 -0.0496539
      CHANNELS 3 Zrotation Xrotation Yrotation
      JOINT RightLeg
      {
        OFFSET 0.0288962 -41.8853 0.065208
        CHANNELS 3 Zrotation Xrotation Yrotation
        JOINT RightFoot
        {
          OFFSET -0.153961 -42.496 -0.469978
          CHANNELS 3 Zrotation Xrotation Yrotation
          End Site
          {
            OFFSET 0 -7.69 17.5
          }
        }
      }
    }
    JOINT LeftUpLeg
    {
      OFFSET 9.30368 -1.65799 0.0114032
      CHANNELS 3 Zrotation Xrotation Yrotation
      JOINT LeftLeg
      {
        OFFSET 0.0812002 -41.8405 -0.136291
        CHANNELS 3 Zrotation Xrotation Yrotation
        JOINT LeftFoot
        {
          OFFSET 0.408244 -41.1613 0.400562
          CHANNELS 3 Zrotation Xrotation Yrotation
          End Site
          {
            OFFSET 0 -7.69 17.5
          }
        }
      }
    }
    JOINT Spine
    {
      OFFSET 0.0091145 14.2923 0.0603898
      CHANNELS 3 Zrotation Xrotation Yrotation
      JOINT Spine1
      {
        OFFSET 0.0313032 9.72692 0.0269052
        CHANNELS 3 Zrotation Xrotation Yrotation
        JOINT Spine2
        {
          OFFSET 0.0416827 10.1254 -0.000588186
          CHANNELS 3 Zrotation Xrotation Yrotation
          JOINT Spine3
          {
            OFFSET 0.0353017 9.71596 0.00525809
            CHANNELS 3 Zrotation Xrotation Yrotation
            JOINT Neck
            {
              OFFSET 0.0870676 10.3793 0.0454457
              CHANNELS 3 Zrotation Xrotation Yrotation
              JOINT Head
              {
                OFFSET 0.0878806 9.48152 0.0233162
                CHANNELS 3 Zrotation Xrotation Yrotation
                End Site
                {
                  OFFSET 0 15.95 0
                }
              }
            }
            JOINT RightShoulder
            {
              OFFSET -3.16008 6.92912 0.0289115
              CHANNELS 3 Zrotation Xrotation Yrotation
              JOINT RightArm
              {
                OFFSET -12.7589 0.0216905 0.0632467
                CHANNELS 3 Zrotation Xrotation Yrotation
                JOINT RightForeArm
                {
                  OFFSET -26.506 -0.0577999 0.0567862
                  CHANNELS 3 Zrotation Xrotation Yrotation
                  JOINT RightHand
                  {
                    OFFSET -25.9836 -0.0526551 -0.00138994
                    CHANNELS 3 Zrotation Xrotation Yrotation
                    JOINT RightHandThumb1
                    {
                      OFFSET -2.48905 0.190105 3.12053
                      CHANNELS 3 Zrotation Xrotation Yrotation
                      JOINT RightHandThumb2
                      {
                        OFFSET -3.68274 0 0
                        CHANNELS 3 Zrotation Xrotation Yrotation
                        JOINT RightHandThumb3
                        {
                          OFFSET -2.55832 0 0
                          CHANNELS 3 Zrotation Xrotation Yrotation
                          End Site
                          {
                            OFFSET -2.194 0 0
                          }
                        }
                      }
                    }
                    JOINT RightInHandIndex
                    {
                      OFFSET -3.22368 0.508421 1.97842
                      CHANNELS 3 Zrotation Xrotation Yrotation
                      JOINT RightHandIndex1
                      {
                        OFFSET -5.21684 -0.091368 0.999158
                        CHANNELS 3 Zrotation Xrotation Yrotation
                        JOINT RightHandIndex2
                        {
                          OFFSET -3.61937 0 0
                          CHANNELS 3 Zrotation Xrotation Yrotation
                          JOINT RightHandIndex3
                          {
                            OFFSET -2.0521 0 0
                            CHANNELS 3 Zrotation Xrotation Yrotation
                            End Site
                            {
                              OFFSET -1.805 0 0
                            }
                          }
                        }
                      }
                    }
                    JOINT RightInHandMiddle
                    {
                      OFFSET -3.38211 0.517263 0.756737
                      CHANNELS 3 Zrotation Xrotation Yrotation
                      JOINT RightHandMiddle1
                      {
                        OFFSET -5.17411 -0.084 0.313895
                        CHANNELS 3 Zrotation Xrotation Yrotation
                        JOINT RightHandMiddle2
                        {
                          OFFSET -3.94947 0 0
                          CHANNELS 3 Zrotation Xrotation Yrotation
                          JOINT RightHandMiddle3
                          {
                            OFFSET -2.47579 0 0
                            CHANNELS 3 Zrotation Xrotation Yrotation
                            End Site
                            {
                              OFFSET -1.975 0 0
                            }
                          }
                        }
                      }
                    }
                    JOINT RightInHandRing
                    {
                      OFFSET -3.36516 0.537895 -0.128947
                      CHANNELS 3 Zrotation Xrotation Yrotation
                      JOINT RightHandRing1
                      {
                        OFFSET -4.63474 -0.022105 -0.478947
                        CHANNELS 3 Zrotation Xrotation Yrotation
                        JOINT RightHandRing2
                        {
                          OFFSET -3.44238 0 0
                          CHANNELS 3 Zrotation Xrotation Yrotation
                          JOINT RightHandRing3
                          {
                            OFFSET -2.3881 0 0
                            CHANNELS 3 Zrotation Xrotation Yrotation
                            End Site
                            {
                              OFFSET -1.857 0 0
                            }
                          }
                        }
                      }
                    }
                    JOINT RightInHandPinky
                    {
                      OFFSET -3.16105 0.469368 -1.20179
                      CHANNELS 3 Zrotation Xrotation Yrotation
                      JOINT RightHandPinky1
                      {
                        OFFSET -4.14105 -0.022105 -1.09053
                        CHANNELS 3 Zrotation Xrotation Yrotation
                        JOINT RightHandPinky2
                        {
                          OFFSET -2.75653 0 0
                          CHANNELS 3 Zrotation Xrotation Yrotation
                          JOINT RightHandPinky3
                          {
                            OFFSET -1.74189 0 0
                            CHANNELS 3 Zrotation Xrotation Yrotation
                            End Site
                            {
                              OFFSET -1.645 0 0
                            }
                          }
                        }
                      }
                    }
                  }
                }
              }
            }
            JOINT LeftShoulder
            {
              OFFSET 3.24363 6.91883 -0.0263005
              CHANNELS 3 Zrotation Xrotation Yrotation
              JOINT LeftArm
              {
                OFFSET 12.8387 -0.0254922 -0.065819
                CHANNELS 3 Zrotation Xrotation Yrotation
                JOINT LeftForeArm
                {
                  OFFSET 26.503 -0.0679028 -0.0690065
                  CHANNELS 3 Zrotation Xrotation Yrotation
                  JOINT LeftHand
                  {
                    OFFSET 25.9897 -0.0384179 -0.0536179
                    CHANNELS 3 Zrotation Xrotation Yrotation
                    JOINT LeftHandThumb1
                    {
                      OFFSET 2.48905 0.190105 3.12053
                      CHANNELS 3 Zrotation Xrotation Yrotation
                      JOINT LeftHandThumb2
                      {
                        OFFSET 3.68274 0 0
                        CHANNELS 3 Zrotation Xrotation Yrotation
                        JOINT LeftHandThumb3
                        {
                          OFFSET 2.55832 0 0
                          CHANNELS 3 Zrotation Xrotation Yrotation
                          End Site
                          {
                            OFFSET 2.194 0 0
                          }
                        }
                      }
                    }
                    JOINT LeftInHandIndex
                    {
                      OFFSET 3.22368 0.508421 1.97842
                      CHANNELS 3 Zrotation Xrotation Yrotation
                      JOINT LeftHandIndex1
                      {
                        OFFSET 5.21684 -0.091368 0.999158
                        CHANNELS 3 Zrotation Xrotation Yrotation
                        JOINT LeftHandIndex2
                        {
                          OFFSET 3.61937 0 0
                          CHANNELS 3 Zrotation Xrotation Yrotation
                          JOINT LeftHandIndex3
                          {
                            OFFSET 2.0521 0 0
                            CHANNELS 3 Zrotation Xrotation Yrotation
                            End Site
                            {
                              OFFSET 1.805 0 0
                            }
                          }
                        }
                      }
                    }
                    JOINT LeftInHandMiddle
                    {
                      OFFSET 3.38211 0.517263 0.756737
                      CHANNELS 3 Zrotation Xrotation Yrotation
                      JOINT LeftHandMiddle1
                      {
                        OFFSET 5.17411 -0.084 0.313895
                        CHANNELS 3 Zrotation Xrotation Yrotation
                        JOINT LeftHandMiddle2
                        {
                          OFFSET 3.94947 0 0
                          CHANNELS 3 Zrotation Xrotation Yrotation
                          JOINT LeftHandMiddle3
                          {
                            OFFSET 2.47579 0 0
                            CHANNELS 3 Zrotation Xrotation Yrotation
                            End Site
                            {
                              OFFSET 1.975 0 0
                            }
                          }
                        }
                      }
                    }
                    JOINT LeftInHandRing
                    {
                      OFFSET 3.36516 0.537895 -0.128947
                      CHANNELS 3 Zrotation Xrotation Yrotation
                      JOINT LeftHandRing1
                      {
                        OFFSET 4.63474 -0.022105 -0.478947
                        CHANNELS 3 Zrotation Xrotation Yrotation
                        JOINT LeftHandRing2
                        {
                          OFFSET 3.44238 0 0
                          CHANNELS 3 Zrotation Xrotation Yrotation
                          JOINT LeftHandRing3
                          {
                            OFFSET 2.3881 0 0
                            CHANNELS 3 Zrotation Xrotation Yrotation
                            End Site
                            {
                              OFFSET 1.857 0 0
                            }
                          }
                        }
                      }
                    }
                    JOINT LeftInHandPinky
                    {
                      OFFSET 3.16105 0.469368 -1.20179
                      CHANNELS 3 Zrotation Xrotation Yrotation
                      JOINT LeftHandPinky1
                      {
                        OFFSET 4.14105 -0.022105 -1.09053
                        CHANNELS 3 Zrotation Xrotation Yrotation
                        JOINT LeftHandPinky2
                        {
                          OFFSET 2.75653 0 0
                          CHANNELS 3 Zrotation Xrotation Yrotation
                          JOINT LeftHandPinky3
                          {
                            OFFSET 1.74189 0 0
                            CHANNELS 3 Zrotation Xrotation Yrotation
                            End Site
                            {
                              OFFSET 1.645 0 0
                            }
                          }
                        }
                      }
                    }
                  }
                }
              }
            }
          }
        }
      }
    }
  }
}
MOTION
Frames: 2
Frame Time: 0.00833333
9.000000000000000000e+02 0.000000000000000000e+00 0.000000000000000000e+00 0.000000000000000000e+00 0.000000000000000000e+00 0.000000000000000000e+00 6.368708452774147766e+00 2.581124354907793350e+00 -2.490824944927449280e+01 1.421201267884537067e+01 -1.554027466844005900e+01 5.378725922022188577e+00 -2.499785611232173466e+00 6.033852568518333293e+00 3.399419375054843595e+00 -1.435378954508088167e+00 -4.106946819395238535e-01 4.814416880046326064e+00 1.545085014022995828e+01 -6.578013601060686888e+00 1.011181436899238051e+01 -7.743975457458100564e+00 2.920481083203515293e+00 8.077585483211139561e+00 2.490555365513225095e-01 -1.783350726392414876e+00 9.586891921617562318e+00 1.730705969727589777e-01 -2.579990349786741799e+00 -2.037536360577636785e+01 -1.280664945641227237e-01 -2.605422779639278152e-01 -5.213861410797584917e+00 -1.550990134355582639e-01 -2.372047600348325680e-01 -7.958118790936511644e+00 -3.340367681574218928e-01 -1.053724441627833519e-01 1.685510121574675724e+00 -1.126553551778036733e+00 -5.379692362393561078e-01 1.685365466929234302e+01 -6.003579292498495867e+00 -2.583202283085589190e+00 2.262097354870509491e+01 3.908838291240868124e+00 3.311796201803229867e+00 -1.290863523834352833e+01 6.552874240675997441e+00 -1.935607444287258971e+01 -2.552368395409713386e+01 5.948066858738435769e+00 -4.937589029742043500e+00 2.665499469767917518e+01 -7.304269760045726478e+00 -6.805211950603128557e+00 1.313035001674185942e+01 0.000000000000000000e+00 0.000000000000000000e+00 0.000000000000000000e+00 -4.028595604048937488e-15 7.191884256125862332e-16 0.000000000000000000e+00 -3.154681789195002443e-15 4.273012503619589490e-16 0.000000000000000000e+00 1.346123116304438602e-15 3.449346994860579563e-15 2.143015189554250241e-16 0.000000000000000000e+00 0.000000000000000000e+00 0.000000000000000000e+00 0.000000000000000000e+00 -4.303553082039663201e-16 -1.304379091142830359e-15 0.000000000000000000e+00 -3.856569497066697599e-16 -1.466254642246155274e-15 1.346123116304438602e-15 3.449346994860579563e-15 2.143015189554250241e-16 0.000000000000000000e+00 1.137999908532438098e-16 7.967538830101187489e-16 0.000000000000000000e+00 5.736124059095532240e-17 -3.864650986512018389e-15 0.000000000000000000e+00 -5.025255363914917861e-16 -1.713732147783972127e-16 1.346123116304438602e-15 3.449346994860579563e-15 2.143015189554250241e-16 0.000000000000000000e+00 0.000000000000000000e+00 0.000000000000000000e+00 0.000000000000000000e+00 -1.129879264230069257e-15 -2.660548734109618656e-15 0.000000000000000000e+00 -1.715504984270961039e-15 2.944954843748671533e-15 1.346123116304438602e-15 3.449346994860579563e-15 2.143015189554250241e-16 0.000000000000000000e+00 0.000000000000000000e+00 0.000000000000000000e+00 0.000000000000000000e+00 -1.453108202960161684e-15 -4.098585551335664790e-15 0.000000000000000000e+00 4.428537840963363118e-16 -8.234043622581138803e-16 1.844992797879509316e+00 -1.718649295077957051e+00 -9.573654453604017789e+00 2.410699626508179350e+01 6.396268796057302808e+00 -1.712028553215517590e+01 3.506083870276053460e+01 1.684031702692192667e+01 4.980003375675975263e+01 -7.771751424419931276e+00 -1.677603690319116936e+00 1.561633408742341800e+00 0.000000000000000000e+00 0.000000000000000000e+00 0.000000000000000000e+00 1.931996646170079170e-15 2.010129691885564369e-15 0.000000000000000000e+00 -3.208794360716078850e-16 -1.936551386907172882e-16 0.000000000000000000e+00 -2.975049021316831679e-16 3.158430981275327513e-15 -1.985626712755345679e-15 0.000000000000000000e+00 0.000000000000000000e+00 0.000000000000000000e+00 0.000000000000000000e+00 9.928448906407188265e-16 -1.424324487890809403e-16 0.000000000000000000e+00 2.226829310306874843e-15 -5.179499761471186042e-16 -2.975049021316831679e-16 3.158430981275327513e-15 -1.985626712755345679e-15 0.000000000000000000e+00 -4.459508348306790198e-16 8.975603396308354533e-16 0.000000000000000000e+00 4.100419285403629269e-16 -1.376481891908625186e-16 0.000000000000000000e+00 1.275223939721429472e-15 -8.503478529563130357e-16 -2.975049021316831679e-16 3.158430981275327513e-15 -1.985626712755345679e-15 0.000000000000000000e+00 0.000000000000000000e+00 0.000000000000000000e+00 0.000000000000000000e+00 9.902652990085503695e-17 1.031359752690904048e-15 0.000000000000000000e+00 -7.811991373354305109e-16 2.794986451256719253e-15 -2.975049021316831679e-16 3.158430981275327513e-15 -1.985626712755345679e-15 0.000000000000000000e+00 0.000000000000000000e+00 0.000000000000000000e+00 0.000000000000000000e+00 -1.047644054640406492e-15 -1.840457460128905785e-15 0.000000000000000000e+00 -1.754616767912137513e-15 -1.347483733264774690e-15
9.000000000000000000e+02 0.000000000000000000e+00 0.000000000000000000e+00 0.000000000000000000e+00 0.000000000000000000e+00 0.000000000000000000e+00 6.466279250825057723e+00 2.648024040137411994e+00 -2.506535997268051474e+01 1.383065933661231028e+01 -1.580274869496803447e+01 5.064054703261058776e+00 -2.437772532492105348e+00 6.179170737440053962e+00 3.284277351635398468e+00 -1.192535441094172199e+00 -7.987310250297466885e-01 4.570083893793919216e+00 1.527414453348258760e+01 -6.831285184320348591e+00 9.965859420828889981e+00 -7.591313811643081166e+00 3.039881963467779169e+00 8.022068971709536811e+00 2.553241177847097587e-01 -1.732628306003145546e+00 9.769741426630972114e+00 2.413994559807150497e-01 -2.342216552457498935e+00 -2.046344970538264008e+01 -1.038534199901136601e-01 -1.968129454639480358e-01 -5.234973729854464075e+00 -1.191038671883321853e-01 -1.317114158703553417e-01 -7.975687602417917965e+00 -3.344787450688186947e-01 -9.449029513386762724e-02 1.675267242427580294e+00 -1.141286109225120748e+00 -4.530049354048004684e-01 1.694371568463277455e+01 -5.984021089129546667e+00 -2.585791172838711738e+00 2.240744282479679228e+01 3.966649596089838248e+00 3.238587200639869046e+00 -1.286766727452723735e+01 7.062262263399004425e+00 -1.914690573679687091e+01 -2.546194595914409220e+01 6.258316798915803503e+00 -4.725624951634595838e+00 2.576739461363417760e+01 -7.295706142734776911e+00 -7.072385998756851144e+00 1.296609209524392803e+01 0.000000000000000000e+00 0.000000000000000000e+00 0.000000000000000000e+00 -3.979505406948143173e-15 7.078547115213882618e-16 0.000000000000000000e+00 -3.161674678124912638e-15 4.312488001726524402e-16 0.000000000000000000e+00 1.356017069154622761e-15 3.441590212127130241e-15 2.163987891206814964e-16 0.000000000000000000e+00 0.000000000000000000e+00 0.000000000000000000e+00 0.000000000000000000e+00 -4.471874348990239735e-16 -1.280779325165373448e-15 0.000000000000000000e+00 -3.285769438478906023e-16 -1.334124168889351008e-15 1.356017069154622761e-15 3.441590212127130241e-15 2.163987891206814964e-16 0.000000000000000000e+00 1.309159535757683636e-16 8.505267643622796460e-16 0.000000000000000000e+00 1.277195528803876087e-16 -3.881918092582980008e-15 0.000000000000000000e+00 -4.542462590261518223e-16 -1.448749438297340644e-16 1.356017069154622761e-15 3.441590212127130241e-15 2.163987891206814964e-16 0.000000000000000000e+00 0.000000000000000000e+00 0.000000000000000000e+00 0.000000000000000000e+00 -1.076071636638599244e-15 -2.673845837942680944e-15 0.000000000000000000e+00 -1.668855393443569847e-15 2.920837544898709862e-15 1.356017069154622761e-15 3.441590212127130241e-15 2.163987891206814964e-16 0.000000000000000000e+00 0.000000000000000000e+00 0.000000000000000000e+00 0.000000000000000000e+00 -1.448580470419379044e-15 -4.069934341352805198e-15 0.000000000000000000e+00 4.701063938410143529e-16 -7.847035430656151072e-16 2.043847602848395617e+00 -1.845271376174280276e+00 -9.528500653113432861e+00 2.371317193664532752e+01 6.826067793910002734e+00 -1.701812049354622047e+01 3.411582790017231304e+01 1.660057267696849692e+01 4.985409296953489644e+01 -7.741929386548482839e+00 -1.806831201478053428e+00 1.662441582893627867e+00 0.000000000000000000e+00 0.000000000000000000e+00 0.000000000000000000e+00 1.924024742849214511e-15 2.006121348114761375e-15 0.000000000000000000e+00 -3.320124503834184452e-16 -1.860780961181266461e-16 0.000000000000000000e+00 -3.056745911023625189e-16 3.165092703639096441e-15 -1.926668254259923561e-15 0.000000000000000000e+00 0.000000000000000000e+00 0.000000000000000000e+00 0.000000000000000000e+00 1.027223790190026399e-15 -1.442083228466376467e-16 0.000000000000000000e+00 2.239260386938214633e-15 -5.342325312148059009e-16 -3.056745911023625189e-16 3.165092703639096441e-15 -1.926668254259923561e-15 0.000000000000000000e+00 -4.595435245671427769e-16 8.918905911765484465e-16 0.000000000000000000e+00 3.970838200802367564e-16 -1.771957293477524039e-16 0.000000000000000000e+00 1.250554005954585244e-15 -7.327720952531757278e-16 -3.056745911023625189e-16 3.165092703639096441e-15 -1.926668254259923561e-15 0.000000000000000000e+00 0.000000000000000000e+00 0.000000000000000000e+00 0.000000000000000000e+00 1.091575423752064514e-16 9.507402729963880556e-16 0.000000000000000000e+00 -7.579147622649448455e-16 2.693488466989293611e-15 -3.056745911023625189e-16 3.165092703639096441e-15 -1.926668254259923561e-15 0.000000000000000000e+00 0.000000000000000000e+00 0.000000000000000000e+00 0.000000000000000000e+00 -1.084261174723022236e-15 -1.819603250569156074e-15 0.000000000000000000e+00 -1.759045366675564922e-15 -1.332113329938858801e-15
